# xmcd CD database file
#
# Track frame offsets:
#	150
#	15105
#	29052
#	41607
#	61477
#	72810
#	87230
#	100765
#	117065
#	133120
#	142312
#	160087
#
# Disc length: 2308 seconds
#
# Revision: 0
# Processed by: cddbd v1.4PL0 Copyright (c) Steve Scherf et al.
# Submitted via: CDex 1.51
#
DISCID=9f09020c
DTITLE=The Band - Roll Over - Country Seasons
DYEAR=1988
DGENRE=Country
TTITLE0=Track1
TTITLE1=Track2
TTITLE2=Track3
TTITLE3=Track4
TTITLE4=Track5
TTITLE5=Track6
TTITLE6=Track7
TTITLE7=Track8
TTITLE8=Track9
TTITLE9=Track10
TTITLE10=Track11
TTITLE11=Track12
EXTD=YEAR: 1988
EXTT0=
EXTT1=
EXTT2=
EXTT3=
EXTT4=
EXTT5=
EXTT6=
EXTT7=
EXTT8=
EXTT9=
EXTT10=
EXTT11=
PLAYORDER=
